<mxfile host="app.diagrams.net" modified="2023-11-07T00:00:00.000Z" agent="5.0 (Macintosh)" etag="123456789" version="15.5.0" type="device">
  <diagram id="architecture-overview" name="Architecture Overview">
    <mxGraphModel dx="1298" dy="834" grid="1" gridSize="10" guides="1" tooltips="1" connect="1" arrows="1" fold="1" page="1" pageScale="1" pageWidth="850" pageHeight="1100" math="0" shadow="0">
      <root>
        <mxCell id="0" />
        <mxCell id="1" parent="0" />
        <!-- Main background -->
        <mxCell id="2" value="" style="rounded=1;whiteSpace=wrap;html=1;fillColor=#F5F5F5;strokeColor=#CCCCCC;strokeWidth=2;" vertex="1" parent="1">
          <mxGeometry x="50" y="50" width="700" height="500" as="geometry" />
        </mxCell>
        <mxCell id="3" value="Git AI Assistant Architecture" style="text;html=1;strokeColor=none;fillColor=none;align=center;verticalAlign=middle;whiteSpace=wrap;rounded=0;fontSize=20;fontStyle=1;" vertex="1" parent="1">
          <mxGeometry x="250" y="10" width="300" height="30" as="geometry" />
        </mxCell>
        
        <!-- VS Code Extension -->
        <mxCell id="4" value="VS Code Extension (extension.ts)" style="rounded=1;whiteSpace=wrap;html=1;fillColor=#2C2C32;strokeColor=#007ACC;strokeWidth=2;fontColor=#FFFFFF;fontSize=14;align=center;" vertex="1" parent="1">
          <mxGeometry x="100" y="100" width="600" height="100" as="geometry" />
        </mxCell>
        <mxCell id="5" value="User Interface, Commands, Extension Lifecycle" style="text;html=1;strokeColor=none;fillColor=none;align=center;verticalAlign=middle;whiteSpace=wrap;rounded=0;fontSize=12;fontColor=#CCCCCC;" vertex="1" parent="1">
          <mxGeometry x="200" y="160" width="400" height="20" as="geometry" />
        </mxCell>
        
        <!-- Core Components -->
        <mxCell id="6" value="GitDiffReader" style="rounded=1;whiteSpace=wrap;html=1;fillColor=#4EC9B0;strokeColor=#333333;strokeWidth=2;fontSize=14;" vertex="1" parent="1">
          <mxGeometry x="100" y="220" width="180" height="80" as="geometry" />
        </mxCell>
        
        <mxCell id="7" value="TemplateManager" style="rounded=1;whiteSpace=wrap;html=1;fillColor=#9CDCFE;strokeColor=#333333;strokeWidth=2;fontSize=14;" vertex="1" parent="1">
          <mxGeometry x="310" y="220" width="180" height="80" as="geometry" />
        </mxCell>
        
        <mxCell id="8" value="AIServiceFactory" style="rounded=1;whiteSpace=wrap;html=1;fillColor=#B5CEA8;strokeColor=#333333;strokeWidth=2;fontSize=14;" vertex="1" parent="1">
          <mxGeometry x="520" y="220" width="180" height="80" as="geometry" />
        </mxCell>
        
        <!-- AI Services -->
        <mxCell id="9" value="AWS Bedrock Service" style="rounded=1;whiteSpace=wrap;html=1;fillColor=#FF9900;strokeColor=#333333;strokeWidth=2;fontSize=14;" vertex="1" parent="1">
          <mxGeometry x="150" y="350" width="200" height="80" as="geometry" />
        </mxCell>
        
        <mxCell id="10" value="Google Gemini Service" style="rounded=1;whiteSpace=wrap;html=1;fillColor=#4285F4;strokeColor=#333333;strokeWidth=2;fontSize=14;" vertex="1" parent="1">
          <mxGeometry x="450" y="350" width="200" height="80" as="geometry" />
        </mxCell>
        
        <!-- Output -->
        <mxCell id="11" value="Generated PR Description" style="rounded=1;whiteSpace=wrap;html=1;fillColor=#DCDCAA;strokeColor=#333333;strokeWidth=2;fontSize=14;" vertex="1" parent="1">
          <mxGeometry x="250" y="450" width="300" height="60" as="geometry" />
        </mxCell>
        
        <!-- Arrows -->
        <mxCell id="12" value="" style="endArrow=classic;html=1;strokeWidth=2;exitX=0.5;exitY=1;exitDx=0;exitDy=0;entryX=0.5;entryY=0;entryDx=0;entryDy=0;" edge="1" parent="1" source="4" target="7">
          <mxGeometry width="50" height="50" relative="1" as="geometry">
            <mxPoint x="400" y="210" as="sourcePoint" />
            <mxPoint x="450" y="160" as="targetPoint" />
          </mxGeometry>
        </mxCell>
        
        <mxCell id="13" value="" style="endArrow=classic;html=1;strokeWidth=2;exitX=0.5;exitY=1;exitDx=0;exitDy=0;entryX=0.5;entryY=0;entryDx=0;entryDy=0;" edge="1" parent="1" source="6" target="9">
          <mxGeometry width="50" height="50" relative="1" as="geometry">
            <mxPoint x="190" y="310" as="sourcePoint" />
            <mxPoint x="240" y="260" as="targetPoint" />
          </mxGeometry>
        </mxCell>
        
        <mxCell id="14" value="" style="endArrow=classic;html=1;strokeWidth=2;exitX=0.5;exitY=1;exitDx=0;exitDy=0;entryX=0.5;entryY=0;entryDx=0;entryDy=0;" edge="1" parent="1" source="7" target="9">
          <mxGeometry width="50" height="50" relative="1" as="geometry">
            <mxPoint x="400" y="310" as="sourcePoint" />
            <mxPoint x="250" y="350" as="targetPoint" />
            <Array as="points">
              <mxPoint x="400" y="320" />
              <mxPoint x="250" y="320" />
            </Array>
          </mxGeometry>
        </mxCell>
        
        <mxCell id="15" value="" style="endArrow=classic;html=1;strokeWidth=2;exitX=0.5;exitY=1;exitDx=0;exitDy=0;entryX=0.5;entryY=0;entryDx=0;entryDy=0;" edge="1" parent="1" source="7" target="10">
          <mxGeometry width="50" height="50" relative="1" as="geometry">
            <mxPoint x="400" y="310" as="sourcePoint" />
            <mxPoint x="550" y="350" as="targetPoint" />
            <Array as="points">
              <mxPoint x="400" y="320" />
              <mxPoint x="550" y="320" />
            </Array>
          </mxGeometry>
        </mxCell>
        
        <mxCell id="16" value="" style="endArrow=classic;html=1;strokeWidth=2;exitX=0.5;exitY=1;exitDx=0;exitDy=0;entryX=0.5;entryY=0;entryDx=0;entryDy=0;" edge="1" parent="1" source="8" target="10">
          <mxGeometry width="50" height="50" relative="1" as="geometry">
            <mxPoint x="610" y="310" as="sourcePoint" />
            <mxPoint x="550" y="350" as="targetPoint" />
          </mxGeometry>
        </mxCell>
        
        <mxCell id="17" value="" style="endArrow=classic;html=1;strokeWidth=2;exitX=0.5;exitY=1;exitDx=0;exitDy=0;entryX=0.5;entryY=0;entryDx=0;entryDy=0;" edge="1" parent="1" source="9" target="11">
          <mxGeometry width="50" height="50" relative="1" as="geometry">
            <mxPoint x="250" y="440" as="sourcePoint" />
            <mxPoint x="400" y="450" as="targetPoint" />
          </mxGeometry>
        </mxCell>
        
        <mxCell id="18" value="" style="endArrow=classic;html=1;strokeWidth=2;exitX=0.5;exitY=1;exitDx=0;exitDy=0;entryX=0.5;entryY=0;entryDx=0;entryDy=0;" edge="1" parent="1" source="10" target="11">
          <mxGeometry width="50" height="50" relative="1" as="geometry">
            <mxPoint x="550" y="440" as="sourcePoint" />
            <mxPoint x="400" y="450" as="targetPoint" />
          </mxGeometry>
        </mxCell>
      </root>
    </mxGraphModel>
  </diagram>
</mxfile> 